<svg width="32" height="32" viewBox="0 0 32 32" fill="none" xmlns="http://www.w3.org/2000/svg">
<g id="Arrow Sync Checkmark">
<path id="Exclude" fill-rule="evenodd" clip-rule="evenodd" d="M20.6703 9.5605C20.3026 9.28012 20.2319 8.75476 20.5123 8.3871C20.7926 8.01944 21.318 7.94871 21.6856 8.22909C24.0929 10.065 25.5349 12.9138 25.5349 16C25.5349 21.1241 21.5893 25.3265 16.5705 25.7349L17.4081 26.5709L17.4891 26.6647C17.7322 26.9925 17.7052 27.4576 17.4081 27.7548C17.0811 28.0817 16.551 28.0817 16.224 27.7548L13.9915 25.5222L13.9104 25.4283C13.6672 25.1006 13.6942 24.6354 13.9915 24.3383L14.3632 23.9666C14.8193 24.0465 15.2887 24.0881 15.7677 24.0881C16.0687 24.0881 16.366 24.0717 16.6586 24.0396L16.653 24.0452C20.7061 23.6041 23.8605 20.1704 23.8605 16C23.8605 13.4417 22.6665 11.083 20.6703 9.5605ZM14.1269 5.4292C13.7999 5.10226 13.7999 4.57216 14.1269 4.24521C14.4538 3.91826 14.9839 3.91826 15.3109 4.24521L17.5435 6.47777C17.8704 6.80472 17.8704 7.33482 17.5435 7.66177L17.1714 8.0338C16.7155 7.95403 16.2465 7.91243 15.7677 7.91243C15.4658 7.91243 15.1679 7.92897 14.8747 7.96119L14.8808 7.95499C10.8283 8.39659 7.67442 11.83 7.67442 16C7.67442 18.4471 8.76606 20.714 10.617 22.2429C10.9735 22.5374 11.0238 23.0652 10.7293 23.4216C10.4349 23.7781 9.90716 23.8284 9.55068 23.5339C7.31862 21.6901 6 18.952 6 16C6 10.8764 9.94504 6.67416 14.9633 6.26519L14.1269 5.4292ZM15.7675 22.6977C19.4665 22.6977 22.4651 19.699 22.4651 16C22.4651 12.301 19.4665 9.30233 15.7675 9.30233C12.0684 9.30233 9.06977 12.301 9.06977 16C9.06977 19.699 12.0684 22.6977 15.7675 22.6977ZM16.2599 12.7624V11.814H15.4745V12.7538C15.1613 12.7817 14.8791 12.8478 14.6278 12.952C14.2844 13.0945 14.0158 13.2965 13.822 13.5582C13.6315 13.8198 13.5363 14.1294 13.5363 14.4869C13.5363 14.8503 13.6247 15.1541 13.8016 15.3983C13.9818 15.6395 14.2334 15.843 14.5564 16.0087C14.8828 16.1715 15.2637 16.3183 15.6989 16.4491C16.0015 16.5393 16.2429 16.6366 16.4231 16.7413C16.6034 16.843 16.7326 16.9579 16.8108 17.0858C16.8924 17.2108 16.9332 17.3576 16.9332 17.5262C16.9332 17.7006 16.8873 17.8561 16.7955 17.9927C16.7071 18.1265 16.5744 18.2311 16.3976 18.3067C16.2242 18.3794 16.01 18.4157 15.755 18.4157C15.602 18.4157 15.449 18.3968 15.296 18.359C15.1464 18.3212 15.0103 18.2587 14.8879 18.1715C14.7655 18.0843 14.6686 17.9651 14.5972 17.814C14.5258 17.6628 14.4901 17.4739 14.4901 17.2471H13.2558C13.2558 17.625 13.3272 17.9448 13.47 18.2064C13.6128 18.4651 13.805 18.673 14.0464 18.83C14.2878 18.9869 14.5564 19.1003 14.8522 19.1701C15.0285 19.2095 15.2053 19.2372 15.3827 19.2534V20.1032H16.163V19.253C16.4766 19.2252 16.7605 19.1641 17.0148 19.0698C17.3786 18.9332 17.6608 18.734 17.8614 18.4724C18.0655 18.2108 18.1675 17.8925 18.1675 17.5175C18.1675 17.1541 18.0791 16.8532 17.9022 16.6148C17.7288 16.3736 17.4806 16.1715 17.1576 16.0087C16.838 15.843 16.4588 15.6933 16.0202 15.5596C15.7006 15.4579 15.449 15.3576 15.2654 15.2587C15.0851 15.157 14.9576 15.0436 14.8828 14.9186C14.808 14.7936 14.7706 14.6483 14.7706 14.4826C14.7706 14.3111 14.8063 14.1584 14.8777 14.0247C14.9525 13.891 15.0681 13.7863 15.2246 13.7108C15.381 13.6323 15.5799 13.593 15.8213 13.593C15.9913 13.593 16.1426 13.6207 16.2752 13.6759C16.4112 13.7311 16.5268 13.8111 16.6221 13.9157C16.7173 14.0175 16.7887 14.1425 16.8363 14.2907C16.8873 14.4361 16.9128 14.6018 16.9128 14.7878H18.1369C18.1369 14.4593 18.0825 14.1686 17.9736 13.9157C17.8682 13.6599 17.7152 13.4448 17.5146 13.2704C17.314 13.0959 17.0709 12.9637 16.7853 12.8736C16.6221 12.8215 16.447 12.7844 16.2599 12.7624Z" fill="black"/>
</g>
</svg>
